PathFileType	4	(X/Y/Z)	walk-thru1-5-TP.trc
DataRate	CameraRate	NumFrames	NumMarkers	Units	OrigDataRate	OrigDataStartFrame	OrigNumFrames
120.00	120.00	       4	60	mm	120.00	1	       454
Frame#	Time	Top.Head			Front.Head			Rear.Head			Jaw			C7			R.Clavicle			L.Clavicle			R.Shoulder			L.Shoulder			R.Scapula			L.Scapula			R.Scap.Inf			R.Biceps.Lateral			R.Elbow			R.Elbow.Medial			R.Forearm			R.Ulna			R.Radius			R.Wrist			R.Thumb.M1			R.Thumb.M2			R.Thumb.M3			R.Finger3.M1			R.Finger3.M2			R.Finger3.M3			L.Biceps.Lateral			L.Elbow			L.Elbow.Medial			L.Forearm			L.Ulna			L.Radius			L.Wrist			L.Thumb.M1			L.Thumb.M2			L.Thumb.M3			L.Finger3.M1			L.Finger3.M2			L.Finger3.M3			V.Sacral			R.ASIS			L.ASIS			R.Thigh			R.Thigh.Front			R.Knee			R.Knee.Medial			R.Shank			R.Ankle			R.Ankle.Medial			R.Heel			R.Toe			R.MedFoot			L.Thigh			L.Knee			L.Knee.Medial			L.Shank			L.Ankle			L.Ankle.Medial			L.Heel			L.Toe			L.MedFoot			V_mid_ASIS			V_R_Knee_JC			V_L_Knee_JC			V_R_Elbow_JC			V_L_Elbow_JC			V_R_Ankle_JC			V_L_Ankle_JC			V_R_Wrist_JC			V_L_Wrist_JC			V_R_ScaTrpz_1stMC_JC			V_R_1stMC_1stPP_JC			V_R_1stPP_1stDP_JC			V_R_LunCap_3rdMC_JC			V_R_3rdMC_3rdPP_JC			V_R_3rdPP_3rdMP_JC			V_R_3rdMP_3rdDP_JC			V_L_ScaTrpz_1stMC_JC			V_L_1stMC_1stPP_JC			V_L_1stPP_1stDP_JC			V_L_LunCap_3rdMC_JC			V_L_3rdMC_3rdPP_JC			V_L_3rdPP_3rdMP_JC			V_L_3rdMP_3rdPP_JC			V_ROOT_JC			V_R_Hip_JC			V_L_Hip_JC			V_R_GlenHum_JC			V_L_GlenHum_JC			V_ForeHead_Ctr			V_Vertex			V_Sagit_Lambdoid_Suture			V_R_FrontoTemp			V_L_FrontoTemporal			V_R_ParietalOccip			V_L_ParietalOcciptal			V_R_Temporal			V_L_Temporal			V_mid_FrontRearHead			V_mid_RLGlenHumCtrs			V_C7_vert			V_C1_vert			V_Mid_Hip			
		X1	Y1	Z1	X2	Y2	Z2	X3	Y3	Z3	X4	Y4	Z4	X5	Y5	Z5	X6	Y6	Z6	X7	Y7	Z7	X8	Y8	Z8	X9	Y9	Z9	X10	Y10	Z10	X11	Y11	Z11	X12	Y12	Z12	X13	Y13	Z13	X14	Y14	Z14	X15	Y15	Z15	X16	Y16	Z16	X17	Y17	Z17	X18	Y18	Z18	X19	Y19	Z19	X20	Y20	Z20	X21	Y21	Z21	X22	Y22	Z22	X23	Y23	Z23	X24	Y24	Z24	X25	Y25	Z25	X26	Y26	Z26	X27	Y27	Z27	X28	Y28	Z28	X29	Y29	Z29	X30	Y30	Z30	X31	Y31	Z31	X32	Y32	Z32	X33	Y33	Z33	X34	Y34	Z34	X35	Y35	Z35	X36	Y36	Z36	X37	Y37	Z37	X38	Y38	Z38	X39	Y39	Z39	X40	Y40	Z40	X41	Y41	Z41	X42	Y42	Z42	X43	Y43	Z43	X44	Y44	Z44	X45	Y45	Z45	X46	Y46	Z46	X47	Y47	Z47	X48	Y48	Z48	X49	Y49	Z49	X50	Y50	Z50	X51	Y51	Z51	X52	Y52	Z52	X53	Y53	Z53	X54	Y54	Z54	X55	Y55	Z55	X56	Y56	Z56	X57	Y57	Z57	X58	Y58	Z58	X59	Y59	Z59	X60	Y60	Z60	

1	0.000	1563.49951	-66.78900	1566.99500	1462.95154	-53.73318	1465.11487	1675.69531	-70.21817	1485.53479	1493.90283	-40.15363	1323.86731	1694.84436	-54.44653	1378.23291	1627.32129	64.95535	1285.99976	1588.77759	-147.87280	1292.29639	1685.24829	134.14293	1286.53650	1627.14539	-247.61050	1295.41138	1753.44128	23.68556	1303.49280	1732.60449	-156.12778	1303.52246	1801.58130	3.48275	1222.98083	1688.17749	191.44958	1146.31104	1742.44580	207.82143	990.91846	1765.06299	135.49660	977.69623	1670.00110	207.72656	910.12036	1704.33801	229.36896	826.70917	1638.14087	189.00014	777.14850	1647.41504	228.42624	744.59314	1615.88013	194.77959	725.71918	1602.01672	181.61620	690.24384	1596.09009	171.80940	647.72211	1632.99353	248.38795	670.89288	1631.31506	228.72954	619.18054	1646.44507	203.49638	587.30249	1646.15845	-311.17242	1154.20483	1700.60669	-331.02533	1012.28265	1734.10669	-255.34753	1007.05048	1614.79578	-297.05426	951.44543	1617.01892	-332.74820	860.65668	1568.26843	-265.88318	825.77203	1551.53003	-311.75824	800.98608	1535.58301	-266.63348	793.72931	1522.79724	-243.39883	758.08368	1514.94812	-236.63110	703.98462	1513.40784	-307.22180	720.40955	1506.88696	-299.13483	682.02417	1514.00684	-274.29895	642.28003	1816.33423	-58.00067	915.36371	1629.64587	104.33290	972.87170	1624.19971	-213.65385	956.47729	1574.95593	150.99240	593.58948	1480.19214	98.72829	512.62354	1531.15356	127.69710	451.21262	1502.32190	17.55886	449.65973	1600.05298	67.50417	292.01834	1766.72339	56.70729	138.18568	1726.35229	-27.14196	143.64914	1819.04773	-8.72554	135.31013	1654.82861	60.53127	58.20012	1678.49927	10.70920	98.15237	1646.61243	-222.21918	576.99963	1638.85107	-186.07329	441.61896	1625.14526	-66.27715	430.25912	1651.39185	-121.98683	247.94821	1735.50842	-135.47859	64.89484	1718.27344	-46.78133	84.60591	1795.28247	-87.68421	43.26217	1589.24756	-99.01864	37.39672	1646.41064	-65.07706	60.75625																																																																																																																															
2	0.008	1556.35669	-66.46432	1565.78577	1457.07581	-52.05146	1464.49536	1669.61792	-69.83405	1485.10095	1489.06409	-39.91458	1323.26331	1688.78943	-54.39880	1377.97449	1620.85144	64.14905	1285.83618	1582.69287	-148.31343	1291.96594	1681.70532	133.77818	1285.21289	1621.64111	-245.24083	1295.23584	1748.25232	23.08071	1302.99182	1727.02258	-155.69933	1303.14844	1796.02185	2.55167	1222.72583	1681.98987	190.00107	1145.68359	1737.59314	208.86378	990.64215	1760.85986	135.09734	977.65479	1665.50098	205.83951	909.77203	1699.85889	227.96881	826.59314	1633.49390	188.40134	776.45367	1644.08545	228.75014	744.06958	1611.86707	193.91579	725.90948	1599.67358	180.71823	689.68054	1592.52734	171.87154	647.51422	1627.80835	246.04944	669.46301	1626.90588	227.37140	618.85010	1641.58118	202.47093	586.47522	1639.23608	-312.12924	1153.27356	1695.57202	-331.11353	1012.45892	1728.57471	-255.04807	1006.53864	1609.32263	-298.15582	950.79700	1611.63184	-332.31839	860.95844	1564.45740	-266.17151	825.63867	1545.15552	-312.65573	800.13672	1529.82935	-266.24048	793.09698	1517.92322	-244.12029	756.45032	1510.37659	-241.57899	701.90973	1507.88184	-308.54822	721.02936	1502.10791	-300.94904	681.47845	1507.62732	-273.78485	642.15332	1810.67163	-57.15260	914.74963	1624.61841	104.72793	972.46552	1616.34009	-213.94585	955.92798	1566.03784	151.05934	594.27600	1470.17493	97.28315	513.84198	1521.59790	126.58910	452.08771	1492.16125	17.08355	450.97086	1586.33826	67.17598	290.41513	1747.98010	56.50443	132.90508	1707.61157	-26.16195	140.01291	1799.57727	-6.70823	128.66525	1633.95740	61.85411	57.64916	1656.95923	10.73986	94.65337	1645.52258	-221.77095	577.28778	1636.87317	-186.50435	441.41986	1624.60803	-65.03793	428.39264	1650.12573	-122.49480	248.03494	1736.94458	-135.16669	65.24255	1722.90979	-44.88496	84.09118	1795.85168	-86.75677	43.36003	1589.35217	-99.29572	37.25581	1646.42554	-65.18875	60.77394																																																																																																																															
3	0.017	1551.73438	-66.31292	1565.91821	1451.48218	-52.53263	1463.37744	1663.55884	-70.79869	1484.95850	1483.37195	-38.55460	1322.95349	1682.40906	-55.26051	1378.21362	1615.66809	64.45464	1285.61218	1576.81531	-147.74489	1291.16809	1676.10950	132.93723	1284.71985	1614.32031	-247.31813	1293.78223	1742.16870	23.29179	1302.81702	1721.36902	-156.52953	1302.99890	1790.32910	1.38711	1222.81018	1677.33472	189.43178	1144.61340	1732.55334	206.65956	990.03088	1756.25610	134.68741	976.81226	1660.30115	205.38434	908.75250	1695.92383	228.12131	826.18488	1629.63367	189.35364	776.71808	1640.54468	228.37924	743.63043	1607.11414	192.90691	724.55872	1595.96533	179.34204	689.53735	1589.43909	171.83315	647.06348	1624.17285	247.08255	668.93549	1624.46448	227.10435	617.75311	1638.54919	203.40193	585.28693	1634.78870	-311.55325	1152.67969	1690.42969	-331.84631	1011.11212	1722.63757	-254.60970	1005.71387	1606.10547	-297.97812	950.69312	1604.42798	-333.27179	859.19495	1560.16418	-267.31482	824.76581	1540.65613	-312.06189	799.62885	1524.55334	-268.42029	792.81067	1511.81030	-244.29758	755.86572	1506.11743	-242.91551	702.23615	1503.25281	-309.63196	719.84119	1494.67126	-301.28265	680.89301	1501.33984	-275.08685	642.05756	1805.36438	-55.78970	914.60870	1618.50696	103.91422	973.35571	1614.37256	-216.51007	955.47821	1559.29541	152.33455	594.87183	1461.22412	97.57713	515.84198	1510.89600	126.57786	453.94901	1483.23926	17.88367	452.86398	1572.13818	66.95560	290.06903	1729.57507	57.54683	126.52110	1688.66504	-25.21265	134.05405	1781.50330	-9.38701	119.63248	1611.90649	62.44942	54.75089	1636.35913	13.26424	92.09949	1643.73511	-221.96156	577.23407	1636.68958	-186.55731	441.36383	1622.21216	-65.70846	427.53757	1649.66626	-122.31879	247.85751	1737.01758	-135.01587	65.27971	1723.52649	-44.48722	82.59253	1796.07202	-86.53733	43.56586	1589.35217	-99.29572	37.25581	1646.75305	-65.55392	60.84044																																																																																																																															
4	0.025	1543.41772	-66.84399	1564.70093	1444.55554	-52.86876	1463.67542	1657.07397	-70.28416	1484.98108	1477.51025	-40.40241	1322.81604	1676.79602	-54.30978	1377.06885	1610.87537	63.52404	1283.95862	1571.50415	-148.87662	1290.38379	1671.03198	132.80415	1284.91418	1610.06909	-247.17685	1293.67065	1736.97058	23.00286	1302.80383	1715.42712	-156.84290	1302.21399	1784.69885	1.98428	1223.28845	1671.92517	189.58322	1144.14453	1726.77625	207.30400	990.11395	1751.17493	134.27655	975.80817	1654.56433	203.56055	906.54626	1692.29053	228.35205	826.19379	1626.37585	187.67937	774.89679	1635.76880	227.15533	743.39502	1603.84912	193.97420	722.47058	1591.48425	179.71223	688.39294	1584.27356	171.00293	646.60406	1620.89893	246.97076	667.90332	1620.54004	226.73439	616.90594	1634.84973	202.98105	585.11902	1631.05139	-311.77740	1151.86292	1684.40771	-330.70218	1011.19269	1716.72046	-253.96385	1004.91199	1598.76782	-298.05310	950.60022	1599.70703	-332.48523	859.50574	1555.24011	-267.02274	822.98517	1535.75671	-312.49677	798.76849	1520.16113	-268.68716	791.04053	1506.29431	-244.54134	755.07770	1502.19568	-246.04175	699.28088	1498.98560	-310.14310	719.59161	1489.85168	-302.17657	680.11035	1496.32141	-276.11224	640.74072	1800.83301	-54.82968	914.25555	1613.85889	102.84126	972.48682	1614.37256	-216.51007	955.47821	1551.85962	150.60820	594.91736	1452.95032	96.19312	517.93451	1502.54993	126.94896	455.15451	1473.98169	16.79077	454.91791	1557.70715	67.05186	290.69147	1708.48657	58.69886	121.35609	1668.07642	-25.46779	130.25453	1761.00122	-8.91387	111.95016	1588.62866	63.26859	54.58698	1614.52698	12.73276	90.01450	1641.57373	-221.28764	576.80096	1635.32031	-186.11188	441.23209	1621.58728	-66.05555	427.25897	1649.11145	-122.57250	247.21945	1737.15649	-134.97435	65.25112	1725.64502	-42.06041	82.36330	1797.15625	-85.41504	42.82687	1589.43115	-99.67908	37.32712	1645.77893	-65.82947	60.73315																																																																																																																															
